<?xml version="1.0" encoding="utf-8"?>
<!-- Generator: Adobe Illustrator 27.2.0, SVG Export Plug-In . SVG Version: 6.00 Build 0)  -->
<svg version="1.1" id="Layer_1" xmlns="http://www.w3.org/2000/svg" xmlns:xlink="http://www.w3.org/1999/xlink" x="0px" y="0px"
	 viewBox="0 0 67 67" style="enable-background:new 0 0 67 67;" xml:space="preserve">
<style type="text/css">
	.st0{fill-rule:evenodd;clip-rule:evenodd;fill:#001D56;}
</style>
<path class="st0" d="M42.5,41.3c-0.3,0-0.5,0.1-0.6,0.2c-0.1,0.2-0.2,0.4-0.2,0.8v0.9h1.5v-0.9c0-0.4-0.1-0.6-0.2-0.8
	C43,41.4,42.8,41.3,42.5,41.3z M36.5,41.3c0.2,0,0.4,0.1,0.5,0.2c0.1,0.2,0.2,0.4,0.2,0.7v4.6c0,0.3-0.1,0.5-0.2,0.6
	c-0.1,0.1-0.3,0.2-0.5,0.2c-0.1,0-0.3,0-0.4-0.1c-0.1-0.1-0.3-0.2-0.4-0.3v-5.5c0.1-0.1,0.2-0.2,0.4-0.3
	C36.3,41.3,36.4,41.3,36.5,41.3z M41.7,44.7v1.7c0,0.5,0.1,0.8,0.2,1c0.1,0.2,0.3,0.3,0.6,0.3s0.5-0.1,0.6-0.2
	c0.1-0.2,0.2-0.5,0.2-1v-0.4h1.8v0.5c0,0.9-0.2,1.6-0.7,2.1c-0.4,0.5-1.1,0.7-2,0.7c-0.8,0-1.4-0.2-1.8-0.7c-0.4-0.5-0.7-1.2-0.7-2
	v-4c0-0.8,0.2-1.4,0.7-1.9s1.1-0.7,1.9-0.7c0.8,0,1.4,0.2,1.8,0.7c0.4,0.4,0.6,1.1,0.6,1.9V45L41.7,44.7L41.7,44.7z M38.6,48.5
	C38.4,48.8,38,49,37.4,49c-0.3,0-0.6-0.1-0.9-0.2c-0.3-0.1-0.5-0.3-0.7-0.6v0.7H34v-12h1.8v3.9c0.2-0.3,0.5-0.5,0.7-0.6
	c0.3-0.1,0.5-0.2,0.8-0.2c0.6,0,1,0.2,1.3,0.6c0.3,0.4,0.4,0.9,0.4,1.7V47C39,47.7,38.9,48.2,38.6,48.5z M31,48.9v-1
	c-0.3,0.4-0.7,0.6-1,0.8S29.3,49,29,49c-0.4,0-0.7-0.1-0.9-0.4c-0.2-0.3-0.3-0.7-0.3-1.2V40h1.7v6.8c0,0.2,0,0.4,0.1,0.5
	s0.2,0.1,0.4,0.1c0.1,0,0.3-0.1,0.5-0.2c0.2-0.1,0.4-0.3,0.5-0.5V40h1.7v8.9H31L31,48.9z M24.9,38.6v10.3h-2V38.6h-2v-1.7h6v1.7
	H24.9z M33,33c0,0,12.1,0,13.5,1.5c1.4,1.4,1.5,8.5,1.5,8.6c0,0,0,7.1-1.5,8.6C45.1,53,33,53,33,53s-12.1,0-13.5-1.5
	C18,50.1,18,43,18,43s0-7.1,1.4-8.6C20.9,33,33,33,33,33z M42.5,29.3h-2v-1.1c-0.4,0.4-0.7,0.7-1.1,0.9c-0.4,0.2-0.8,0.3-1.1,0.3
	c-0.5,0-0.8-0.1-1-0.4S37,28.3,37,27.7v-8.2h2V27c0,0.2,0,0.4,0.1,0.5s0.2,0.2,0.4,0.2c0.1,0,0.3-0.1,0.5-0.2s0.4-0.3,0.6-0.5v-7.4
	h2L42.5,29.3L42.5,29.3z M31.8,27.6c0.1,0.1,0.3,0.2,0.6,0.2s0.5-0.1,0.6-0.2c0.2-0.2,0.2-0.4,0.2-0.6v-5.3c0-0.2-0.1-0.4-0.2-0.5
	c-0.2-0.1-0.4-0.2-0.6-0.2c-0.2,0-0.4,0.1-0.6,0.2c-0.1,0.1-0.2,0.3-0.2,0.5V27C31.6,27.2,31.7,27.4,31.8,27.6z M30.4,19.9
	c0.5-0.4,1.2-0.7,2.1-0.7c0.8,0,1.5,0.2,2,0.7s0.8,1.1,0.8,1.8v5.1c0,0.8-0.3,1.5-0.8,2s-1.2,0.7-2.1,0.7c-0.9,0-1.5-0.2-2.1-0.7
	c-0.5-0.5-0.8-1.2-0.8-2v-5.1C29.6,21,29.9,20.4,30.4,19.9z M24.3,16H22l2.6,8v5.3h2.2v-5.5l2.6-7.8h-2.2l-1.4,5.3h-0.1L24.3,16z
	 M33,64C16.4,64,3,50.6,3,34S16.4,4,33,4s30,13.4,30,30S49.6,64,33,64z"/>
</svg>
