<?xml version="1.0" standalone="no"?>
<!DOCTYPE svg PUBLIC "-//W3C//DTD SVG 20010904//EN"
 "http://www.w3.org/TR/2001/REC-SVG-20010904/DTD/svg10.dtd">
<svg version="1.0" xmlns="http://www.w3.org/2000/svg"
 width="1178.000000pt" height="1178.000000pt" viewBox="0 0 1178.000000 1178.000000"
 preserveAspectRatio="xMidYMid meet">
<metadata>
Created by potrace 1.14, written by Peter Selinger 2001-2017
</metadata>
<g transform="translate(0.000000,1178.000000) scale(0.100000,-0.100000)"
fill="#000000" stroke="none">
<path d="M2593 9393 c-2137 -3 -2253 -4 -2254 -21 0 -9 -2 -24 -4 -32 -1 -8
-5 -31 -9 -50 -3 -19 -14 -84 -25 -145 -11 -60 -22 -123 -25 -140 -3 -16 -12
-70 -21 -120 -9 -49 -18 -101 -20 -115 -6 -34 -24 -129 -30 -160 -3 -13 -7
-40 -10 -60 -3 -20 -7 -45 -9 -57 -3 -11 -7 -36 -10 -54 -4 -28 -82 -465 -100
-561 l-5 -28 900 0 c518 0 899 -4 899 -9 0 -5 -7 -44 -15 -87 -8 -44 -17 -99
-20 -124 -4 -24 -8 -47 -10 -50 -2 -3 -6 -23 -9 -45 -4 -22 -15 -90 -26 -151
-11 -61 -22 -129 -26 -150 -3 -21 -9 -57 -14 -79 -8 -38 -27 -145 -36 -210 -3
-16 -7 -41 -10 -55 -3 -14 -8 -38 -11 -55 -2 -16 -13 -77 -24 -135 -11 -58
-22 -121 -25 -140 -3 -19 -7 -46 -10 -60 -11 -58 -13 -69 -18 -106 -4 -22 -14
-77 -22 -124 -9 -47 -17 -94 -19 -105 -1 -11 -6 -38 -10 -60 -13 -70 -15 -79
-25 -140 -5 -33 -12 -71 -15 -85 -6 -33 -23 -126 -29 -170 -3 -19 -8 -46 -11
-60 -5 -25 -44 -242 -70 -395 -8 -44 -16 -91 -19 -105 -3 -14 -7 -41 -10 -60
-3 -19 -10 -60 -16 -90 -6 -30 -13 -70 -16 -89 -3 -18 -8 -43 -10 -55 -2 -11
-18 -102 -35 -200 -16 -99 -31 -182 -33 -185 -2 -3 -7 -30 -10 -60 -4 -29 -8
-56 -10 -60 -2 -3 -7 -28 -11 -56 -3 -27 -15 -95 -25 -150 -11 -55 -31 -170
-46 -255 -14 -85 -28 -164 -30 -175 -2 -11 -7 -36 -10 -55 -4 -19 -8 -44 -10
-55 -2 -11 -11 -60 -20 -110 -8 -49 -17 -99 -18 -110 -5 -26 -18 -94 -23 -120
-2 -11 -6 -36 -9 -55 -9 -59 -11 -72 -28 -160 -21 -118 -25 -137 -36 -205 -5
-33 -12 -71 -15 -85 -6 -32 -23 -125 -30 -170 -5 -33 -13 -78 -21 -125 -2 -11
-6 -32 -10 -47 l-6 -28 801 0 801 0 5 23 c2 12 14 78 25 146 12 69 23 127 24
130 2 3 7 30 10 60 4 29 8 56 10 60 2 3 7 28 10 54 4 26 18 106 31 177 13 71
31 171 40 222 8 51 17 105 20 121 9 49 15 81 30 172 23 131 24 138 30 165 6
32 23 124 30 170 8 48 17 101 22 125 4 22 51 292 59 340 3 17 7 37 9 45 2 8 6
33 10 54 5 36 39 227 50 286 3 13 7 42 10 65 3 22 8 47 11 56 2 9 11 54 19
100 10 65 81 471 110 629 12 69 100 569 131 745 38 217 37 209 60 340 9 50 18
99 19 110 4 20 152 864 159 900 2 11 9 53 17 94 l13 74 1025 -6 c564 -4 1303
-7 1641 -7 l615 0 64 -37 c270 -160 388 -511 296 -880 -106 -421 -414 -736
-799 -818 -46 -10 -214 -14 -703 -14 l-642 -1 5 22 c2 13 6 34 9 48 3 14 19
104 35 200 17 96 33 186 35 200 3 14 14 78 25 142 12 64 23 127 25 140 3 13 7
37 10 53 3 17 16 93 30 170 13 77 27 156 30 175 3 19 8 42 10 50 2 8 6 31 9
50 3 19 12 74 21 123 8 48 18 104 21 125 3 20 9 52 14 70 6 23 5 34 -3 38 -7
2 -367 3 -802 2 l-790 -3 -27 -150 c-15 -82 -30 -168 -33 -190 -3 -22 -12 -74
-20 -115 -8 -41 -22 -118 -30 -170 -19 -116 -23 -138 -30 -170 -6 -32 -23
-124 -30 -170 -6 -38 -15 -92 -21 -125 -13 -70 -25 -133 -28 -151 -2 -12 -7
-39 -10 -60 -4 -22 -13 -75 -21 -119 -8 -44 -17 -96 -20 -115 -3 -19 -8 -42
-10 -50 -2 -8 -6 -33 -10 -55 -5 -36 -49 -289 -59 -341 -3 -12 -7 -37 -10 -55
-3 -19 -14 -83 -25 -144 -11 -60 -23 -126 -26 -145 -3 -19 -7 -46 -10 -60 -3
-14 -7 -38 -10 -55 -3 -16 -7 -40 -9 -51 -2 -12 -7 -38 -10 -59 -4 -21 -15
-88 -26 -149 -11 -61 -23 -124 -26 -141 -12 -71 -45 -256 -59 -330 -15 -81
-20 -110 -30 -179 -4 -21 -9 -48 -11 -60 -2 -11 -9 -48 -14 -81 -5 -33 -12
-71 -15 -85 -11 -53 -30 -168 -40 -235 -4 -22 -10 -56 -15 -75 -5 -19 -11 -56
-15 -82 -3 -26 -7 -53 -10 -60 -2 -7 -6 -29 -9 -48 -3 -19 -22 -125 -41 -235
-36 -203 -92 -525 -101 -580 -3 -16 -7 -37 -9 -45 -2 -8 -7 -31 -10 -50 -7
-44 -17 -99 -21 -125 -3 -11 -7 -33 -9 -50 -3 -16 -10 -54 -15 -84 -6 -30 -10
-56 -10 -58 0 -2 360 -3 799 -3 l800 0 11 58 c11 56 14 76 25 137 3 17 7 39 9
50 5 29 19 107 21 125 2 14 50 279 59 325 2 11 7 43 11 70 5 28 9 52 10 55 1
3 5 25 9 50 5 25 10 52 11 61 2 9 6 32 9 50 3 19 7 43 10 54 2 11 7 40 11 65
4 25 9 52 10 61 2 9 6 34 9 55 10 58 65 369 81 454 8 41 17 91 19 110 5 30 14
80 51 285 9 52 17 99 22 130 3 17 8 46 12 65 l7 35 381 3 381 2 13 -37 c6 -21
20 -56 29 -78 10 -22 82 -202 160 -400 78 -198 146 -369 151 -380 5 -11 26
-65 48 -120 21 -55 57 -145 79 -200 86 -214 184 -461 192 -485 5 -14 60 -153
123 -310 l115 -285 911 -8 c501 -5 1627 -5 2502 0 1484 7 1592 9 1595 25 1 9
5 34 8 55 3 21 10 63 16 93 6 30 13 69 15 85 3 17 7 43 11 58 3 16 7 38 9 50
1 12 6 40 10 62 13 70 15 79 25 140 12 73 16 98 35 200 8 44 17 97 21 119 3
21 7 48 10 60 9 48 72 401 80 451 9 54 12 70 19 108 l7 37 -1018 0 c-561 0
-1123 3 -1249 7 l-231 6 18 101 c32 185 49 281 59 326 5 25 12 63 15 85 3 22
7 47 9 55 2 8 7 35 10 60 3 25 8 52 10 60 2 8 7 31 10 50 3 19 15 85 25 145
11 61 22 126 25 145 3 19 10 60 16 90 12 64 19 104 35 200 3 14 11 61 19 105
8 44 17 97 21 119 3 21 8 48 10 60 5 27 12 67 19 109 3 17 10 57 15 87 11 58
13 70 25 135 4 22 9 51 11 65 3 14 11 61 19 105 8 44 16 96 19 116 3 20 8 42
10 50 3 8 8 32 11 54 5 35 12 78 29 175 2 14 7 36 10 50 3 14 8 41 10 60 3 19
10 60 16 90 6 30 33 183 60 340 28 157 52 296 54 310 3 14 14 79 26 145 11 66
22 127 25 135 2 8 6 31 9 50 8 54 35 212 61 355 13 72 26 146 29 165 3 19 8
46 10 60 17 87 69 380 72 404 2 15 5 35 8 45 3 9 8 34 11 56 3 23 7 52 10 65
3 14 7 39 10 55 6 36 13 77 19 108 12 60 69 387 73 420 l5 37 -799 0 -798 0
-18 -97 c-10 -54 -20 -111 -23 -128 -4 -27 -33 -189 -53 -300 -7 -38 -4 -44
52 -114 235 -297 373 -639 414 -1026 16 -145 7 -670 -12 -728 -2 -7 -6 -30 -9
-53 -9 -70 -53 -255 -84 -349 -96 -293 -258 -587 -467 -850 -92 -116 -333
-365 -452 -468 -82 -70 -90 -81 -99 -134 -2 -16 -7 -44 -10 -63 -3 -19 -8 -46
-10 -60 -3 -14 -11 -59 -19 -100 -8 -41 -16 -88 -18 -105 -3 -16 -15 -84 -27
-150 -12 -66 -23 -129 -25 -140 -3 -22 -23 -138 -29 -170 -2 -11 -7 -38 -11
-60 -10 -52 -13 -70 -21 -133 -6 -43 -3 -63 16 -105 12 -29 28 -67 36 -84 l14
-33 -93 0 -93 0 -26 68 c-15 37 -106 262 -202 501 -97 239 -176 439 -176 445
0 6 24 22 53 36 371 175 784 505 1038 830 24 30 46 57 49 60 7 6 102 140 115
162 6 9 35 59 66 110 132 217 234 461 289 693 17 73 22 94 35 164 2 13 7 49
11 80 3 31 8 65 11 76 12 48 10 396 -2 490 -18 137 -24 177 -35 213 -5 18 -7
32 -5 32 3 0 0 11 -5 25 -5 14 -12 36 -14 48 -10 52 -71 219 -114 312 -40 86
-144 270 -161 285 -4 3 -31 39 -62 80 -81 108 -222 248 -339 336 -284 214
-635 350 -1006 390 -32 3 -77 9 -99 12 -48 7 -1321 8 -4322 5z"/>
</g>
</svg>
